HIERARCHY
ROOT pelvis
{
  OFFSET 0 100 0
  CHANNELS 6 Xposition Yposition Zposition Zrotation Xrotation Yrotation
  JOINT pelvis_right_femur
  {
    OFFSET -10.78128 -3.44521 -0.5502486
    CHANNELS 3 Zrotation Xrotation Yrotation
    JOINT right_femur_tibia
    {
      OFFSET -0.8047443 -44.0398 -0.1307829
      CHANNELS 3 Zrotation Xrotation Yrotation
      JOINT right_tibia_foot
      {
        OFFSET 3.006224 -47.83518 -5
        CHANNELS 3 Zrotation Xrotation Yrotation
        End Site
        {
          OFFSET 0 -5 15
        }
      }
    }
  }
  JOINT pelvis_left_femur
  {
    OFFSET 10.78128 -3.44521 -0.5502486
    CHANNELS 3 Zrotation Xrotation Yrotation
    JOINT left_femur_tibia
    {
      OFFSET 0.8047443 -44.0398 -0.1307829
      CHANNELS 3 Zrotation Xrotation Yrotation
      JOINT left_tibia_foot
      {
        OFFSET -4.370144 -48.10324 -4.275266
        CHANNELS 3 Zrotation Xrotation Yrotation
        End Site
        {
          OFFSET 0 -5 15
        }
      }
    }
  }
  JOINT pelvis_spine1
  {
    OFFSET 0 6.468898 -3.129235
    CHANNELS 3 Zrotation Xrotation Yrotation
    JOINT spine1
    {
      OFFSET 0 23.15396 4.99043
      CHANNELS 3 Zrotation Xrotation Yrotation
      JOINT spine2
      {
        OFFSET 0 20.79997 -5.064912
        CHANNELS 3 Zrotation Xrotation Yrotation
        JOINT neck
        {
          OFFSET 0 14.38658 9.616178
          CHANNELS 3 Zrotation Xrotation Yrotation
          End Site
          {
            OFFSET 0 20 0
          }
        }
      }
      JOINT right_manubrium
      {
        OFFSET -5.722621 16.35077 3.967754
        CHANNELS 3 Zrotation Xrotation Yrotation
        JOINT right_clavicle
        {
          OFFSET -13.16364 1.694482 -4.693211
          CHANNELS 3 Zrotation Xrotation Yrotation
          JOINT right_humerus
          {
            OFFSET -28.5034 -0.3100689 -2.792744
            CHANNELS 3 Zrotation Xrotation Yrotation
            JOINT right_radius
            {
              OFFSET -25.15693 0.02248979 -1.271978
              CHANNELS 3 Zrotation Xrotation Yrotation
              End Site
              {
                OFFSET -15 0 0
              }
            }
          }
        }
      }
      JOINT left_manubrium
      {
        OFFSET 5.722621 16.35077 3.967754
        CHANNELS 3 Zrotation Xrotation Yrotation
        JOINT left_clavicle
        {
          OFFSET 13.16364 1.694482 -4.693211
          CHANNELS 3 Zrotation Xrotation Yrotation
          JOINT left_humerus
          {
            OFFSET 29.39168 -1.063119 -2.237045
            CHANNELS 3 Zrotation Xrotation Yrotation
            JOINT left_radius
            {
              OFFSET 24.59957 -0.9528479 0.9047498
              CHANNELS 3 Zrotation Xrotation Yrotation
              End Site
              {
                OFFSET 15 -0 -0
              }
            }
          }
        }
      }
    }
  }
}
MOTION
Frames: 9
Frame Time: 0.0416666666667
48.99948 106.3428 274.9384 3.500515 -10.43329 -0.7260855 -3.241074 12.20761 5.246096 -0 53.49314 -0 6.498564 -7.506325 -4.467774 -6.911254 -6.450507 -10.49699 -0 25.96291 -0 -7.255881 -9.371436 17.32959 -2.787887 -1.678403 7.331447 -2.230432 8.898117 -2.48903 2.069043 23.21201 5.802115 1.114438 -14.85359 8.43324 1.779083 -17.90011 9.901002 85.70132 21.24654 -11.51466 -0 0 20.31201 -24.60328 13.70511 11.8702 4.143116 -13.04453 -3.540041 -90.76419 25.26439 21.21327 0 0 -9.376624 -4.003353 6.239439 17.8259
49.67538 107.9437 280.737 3.191786 -10.8331 0.05259735 -2.626875 4.938505 4.108604 -0 55.25347 -0 5.662799 -7.733555 -5.629839 -6.923534 -0.4592881 -10.74432 -0 24.0606 -0 -7.112491 -10.7025 16.66533 -2.607555 -1.009092 5.841797 -1.911624 8.854479 -3.273032 1.872936 23.72411 6.025209 0.806692 -14.51649 8.775536 1.988579 -16.95541 9.764952 87.23191 21.76797 -13.17588 -0 0 18.29707 -23.63981 13.78038 11.31238 4.172451 -14.13393 -3.936073 -88.55122 25.74369 17.35173 0 0 -11.30556 -3.209906 6.720066 16.89443
50.28513 109.1469 286.1658 2.940685 -10.69863 1.057969 -2.154176 -2.160113 3.289688 -0 52.52354 -0 4.80612 -7.675125 -6.512076 -6.690716 4.967084 -10.98118 -0 21.41172 -0 -7.097192 -11.96885 15.83373 -2.464243 -0.6184337 4.345422 -1.511492 8.622443 -4.318735 1.838022 24.09254 6.165416 0.5897109 -14.21779 9.13354 1.691378 -15.91776 9.380195 88.75932 22.15819 -14.95992 -0 0 16.67526 -22.70339 13.73496 10.83403 4.45929 -15.24226 -4.316926 -86.3295 26.08179 13.18762 0 0 -13.7129 -2.348607 7.265142 15.76827
50.79335 109.6593 291.5021 2.855035 -10.19852 2.288231 -2.061562 -8.679339 2.845302 -0 45.90691 -0 3.866357 -7.437049 -7.226367 -6.405302 9.772748 -11.23726 -0 18.74708 -0 -7.114688 -13.37604 14.90171 -2.528381 -0.418846 3.038184 -1.063127 8.247303 -5.473405 2.018983 24.29168 6.127095 0.5033124 -13.99762 9.417975 1.026281 -14.84994 8.836208 90.06707 22.4058 -16.76576 -0 0 15.25705 -21.83177 13.56801 10.36123 4.963581 -16.38029 -4.650123 -84.13355 26.28597 8.929098 0 0 -16.43473 -1.444799 7.866269 14.45547
51.20419 109.4053 296.9936 2.943922 -9.494471 3.425334 -2.444613 -14.21277 2.579023 -0 36.73162 -0 2.785278 -7.393279 -7.891805 -6.203851 14.00201 -11.44351 -0 16.76851 -0 -7.119115 -14.9771 13.97077 -2.790765 -0.3468355 2.069594 -0.6215192 7.787197 -6.487389 2.338832 24.31851 5.915719 0.514172 -13.9272 9.567647 0.2507158 -13.73663 8.307771 91.12348 22.55976 -18.54037 -0 0 13.7464 -20.97267 13.3204 9.781291 5.59484 -17.54784 -4.860739 -82.04312 26.35521 4.801581 0 0 -19.29657 -0.4836639 8.520577 12.99665
51.51037 108.4944 302.6434 3.132759 -8.789458 4.177137 -3.028846 -18.57514 2.178393 -0 26.89126 -0 1.559022 -7.851587 -8.503012 -6.145051 17.68579 -11.49582 -0 15.92068 -0 -7.143209 -16.63024 13.1394 -3.105085 -0.3211316 1.547831 -0.2338094 7.323302 -7.102266 2.673085 24.22862 5.618903 0.5627652 -14.02922 9.589982 -0.3694384 -12.61072 7.966759 91.97879 22.68642 -20.21061 -0 0 11.89705 -20.02786 13.04206 8.994832 6.196887 -18.72672 -4.886382 -80.17997 26.29491 1.035562 0 0 -22.05684 0.5353152 9.199621 11.47438
51.67198 107.2036 308.4043 3.261643 -8.194869 4.415528 -3.254329 -21.70984 1.575719 -0 18.39544 -0 0.2623153 -8.808812 -9.044231 -6.142454 20.78029 -11.37347 -0 16.40602 -0 -7.271672 -17.9906 12.48426 -3.299604 -0.2480914 1.387703 0.09949699 6.929398 -7.278025 2.922882 24.12571 5.31708 0.601125 -14.25541 9.508264 -0.6726428 -11.60701 7.860072 92.67085 22.83846 -21.64063 -0 0 9.709457 -18.95465 12.76829 8.013341 6.64643 -19.85082 -4.721025 -78.67175 26.1449 -2.105921 0 0 -24.41682 1.564171 9.853709 10.00666
51.63791 105.8712 314.4128 3.162667 -7.78968 4.370914 -2.777477 -23.50751 1.180138 -0 13.11914 -0 -0.969558 -9.772188 -9.494596 -5.888491 23.22721 -11.23024 -0 18.36317 -0 -7.596326 -18.59572 12.04986 -3.254784 -0.1933293 1.325488 0.4022247 6.633947 -7.205764 3.082072 24.07986 5.036079 0.6246167 -14.56203 9.35555 -0.6767119 -10.79364 7.88366 93.27458 23.02015 -22.73813 -0 0 7.409608 -17.77802 12.51508 6.948818 6.890914 -20.72948 -4.413255 -77.67797 25.99063 -4.325326 0 0 -26.07903 2.521433 10.4417 8.719616
51.38466 104.7842 320.883 2.781754 -7.626082 4.490332 -1.599992 -23.71792 1.565941 -0 12.05615 -0 -2.011807 -10.05309 -9.722044 -5.136033 24.93772 -11.20961 -0 22.06686 -0 -8.141044 -18.00065 11.9279 -2.936867 -0.378049 1.10508 0.6664717 6.449495 -7.131384 3.209693 24.12805 4.74821 0.661734 -14.90654 9.147984 -0.556648 -10.15608 7.870479 93.84669 23.19659 -23.44456 -0 0 5.341649 -16.57912 12.27359 5.956228 6.945104 -21.09162 -4.018889 -77.38991 25.94561 -5.338334 0 0 -26.7923 3.31805 10.94896 7.726975
